<svg width="24" height="24" viewBox="0 0 24 24" fill="none" xmlns="http://www.w3.org/2000/svg">
<path d="M22.425 9.13124C22.3311 8.83591 22.1502 8.57584 21.9059 8.38512C21.6617 8.1944 21.3655 8.08195 21.0562 8.06249L15.525 7.70624C15.5168 7.70526 15.509 7.70214 15.5025 7.6972C15.4959 7.69227 15.4907 7.68568 15.4875 7.67812L13.425 2.47499C13.3136 2.18751 13.118 1.94043 12.8636 1.7662C12.6093 1.59196 12.3083 1.49872 12 1.49872C11.6917 1.49872 11.3906 1.59196 11.1363 1.7662C10.882 1.94043 10.6863 2.18751 10.575 2.47499L8.51247 7.67812C8.50924 7.68568 8.50407 7.69227 8.49749 7.6972C8.49091 7.70214 8.48314 7.70526 8.47497 7.70624L2.94372 8.06249C2.63444 8.08195 2.33826 8.1944 2.09401 8.38512C1.84976 8.57584 1.66884 8.83591 1.57497 9.13124C1.47742 9.43042 1.47172 9.75196 1.55861 10.0544C1.6455 10.3569 1.821 10.6263 2.06247 10.8281L6.29997 14.3531C6.30961 14.3627 6.31645 14.3748 6.31976 14.388C6.32306 14.4012 6.3227 14.4151 6.31872 14.4281L5.0531 19.4062C4.96684 19.743 4.98322 20.098 5.10016 20.4254C5.2171 20.7528 5.42924 21.0378 5.70935 21.2437C5.98219 21.4396 6.30726 21.5495 6.64295 21.5595C6.97864 21.5696 7.30969 21.4792 7.59372 21.3L11.9906 18.5156H12.0093L16.7437 21.5062C16.9866 21.6641 17.2697 21.7487 17.5593 21.75C17.8788 21.7457 18.1894 21.6443 18.45 21.4594C18.7045 21.2748 18.8972 21.0175 19.0026 20.7213C19.1081 20.4251 19.1213 20.1039 19.0406 19.8L17.6812 14.4281C17.6772 14.4151 17.6769 14.4012 17.6802 14.388C17.6835 14.3748 17.6903 14.3627 17.7 14.3531L21.9375 10.8281C22.1789 10.6263 22.3544 10.3569 22.4413 10.0544C22.5282 9.75196 22.5225 9.43042 22.425 9.13124ZM20.9812 9.67499L16.7343 13.2C16.5088 13.3913 16.3418 13.6423 16.2522 13.9241C16.1627 14.206 16.1543 14.5074 16.2281 14.7937L17.5875 20.1656C17.5968 20.2031 17.5968 20.2125 17.5875 20.2219C17.5812 20.2339 17.5714 20.2438 17.5593 20.25H17.5406L12.8156 17.25C12.572 17.095 12.2887 17.0136 12 17.0156V2.99999C12.0093 2.99999 12.0187 2.99999 12.0281 3.02812L14.1 8.23124C14.2056 8.50211 14.3858 8.73748 14.6198 8.91006C14.8538 9.08263 15.1319 9.18533 15.4218 9.20624L20.9625 9.56249C20.9718 9.56249 20.9812 9.56249 20.9906 9.59999C21 9.63749 20.9906 9.66562 20.9812 9.67499Z" fill="#F6D021"/>
</svg>
