<svg width="24" height="24" viewBox="0 0 24 24" fill="none" xmlns="http://www.w3.org/2000/svg">
<path d="M22.425 9.13125C22.3311 8.83592 22.1502 8.57585 21.9059 8.38513C21.6617 8.19441 21.3655 8.08195 21.0562 8.0625L15.4875 7.67813L13.425 2.475C13.3124 2.1885 13.1163 1.94241 12.8623 1.76858C12.6082 1.59475 12.3078 1.50118 12 1.5C11.6921 1.50118 11.3917 1.59475 11.1377 1.76858C10.8836 1.94241 10.6876 2.1885 10.575 2.475L8.47497 7.70625L2.94372 8.0625C2.63482 8.08321 2.33924 8.19614 2.09522 8.38668C1.8512 8.57722 1.66997 8.83659 1.57497 9.13125C1.47742 9.43043 1.47172 9.75197 1.55861 10.0544C1.6455 10.3569 1.821 10.6263 2.06247 10.8281L6.31872 14.4281L5.0531 19.4062C4.96553 19.743 4.98129 20.0983 5.09832 20.426C5.21536 20.7537 5.42826 21.0386 5.70935 21.2438C5.98219 21.4396 6.30726 21.5495 6.64295 21.5596C6.97864 21.5696 7.30969 21.4792 7.59372 21.3L11.9906 18.5156H12.0093L16.7437 21.5062C16.9866 21.6641 17.2697 21.7487 17.5593 21.75C17.7958 21.7481 18.0287 21.6921 18.2402 21.5861C18.4516 21.4802 18.6359 21.3272 18.779 21.1389C18.922 20.9505 19.02 20.7319 19.0654 20.4998C19.1107 20.2677 19.1022 20.0283 19.0406 19.8L17.7 14.3531L21.9375 10.8281C22.1789 10.6263 22.3544 10.3569 22.4413 10.0544C22.5282 9.75197 22.5225 9.43043 22.425 9.13125Z" fill="#F6D021"/>
</svg>
